HIERARCHY
ROOT pelvis
{
  OFFSET 0 100 0
  CHANNELS 6 Xposition Yposition Zposition Zrotation Xrotation Yrotation
  JOINT pelvis_right_femur
  {
    OFFSET -10.78128 -3.44521 -0.5502486
    CHANNELS 3 Zrotation Xrotation Yrotation
    JOINT right_femur_tibia
    {
      OFFSET -0.8047443 -44.0398 -0.1307829
      CHANNELS 3 Zrotation Xrotation Yrotation
      JOINT right_tibia_foot
      {
        OFFSET 3.006224 -47.83518 -5
        CHANNELS 3 Zrotation Xrotation Yrotation
        End Site
        {
          OFFSET 0 -5 15
        }
      }
    }
  }
  JOINT pelvis_left_femur
  {
    OFFSET 10.78128 -3.44521 -0.5502486
    CHANNELS 3 Zrotation Xrotation Yrotation
    JOINT left_femur_tibia
    {
      OFFSET 0.8047443 -44.0398 -0.1307829
      CHANNELS 3 Zrotation Xrotation Yrotation
      JOINT left_tibia_foot
      {
        OFFSET -4.370144 -48.10324 -4.275266
        CHANNELS 3 Zrotation Xrotation Yrotation
        End Site
        {
          OFFSET 0 -5 15
        }
      }
    }
  }
  JOINT pelvis_spine1
  {
    OFFSET 0 6.468898 -3.129235
    CHANNELS 3 Zrotation Xrotation Yrotation
    JOINT spine1
    {
      OFFSET 0 23.15396 4.99043
      CHANNELS 3 Zrotation Xrotation Yrotation
      JOINT spine2
      {
        OFFSET 0 20.79997 -5.064912
        CHANNELS 3 Zrotation Xrotation Yrotation
        JOINT neck
        {
          OFFSET 0 14.38658 9.616178
          CHANNELS 3 Zrotation Xrotation Yrotation
          End Site
          {
            OFFSET 0 20 0
          }
        }
      }
      JOINT right_manubrium
      {
        OFFSET -5.722621 16.35077 3.967754
        CHANNELS 3 Zrotation Xrotation Yrotation
        JOINT right_clavicle
        {
          OFFSET -13.16364 1.694482 -4.693211
          CHANNELS 3 Zrotation Xrotation Yrotation
          JOINT right_humerus
          {
            OFFSET -28.5034 -0.3100689 -2.792744
            CHANNELS 3 Zrotation Xrotation Yrotation
            JOINT right_radius
            {
              OFFSET -25.15693 0.02248979 -1.271978
              CHANNELS 3 Zrotation Xrotation Yrotation
              End Site
              {
                OFFSET -15 0 0
              }
            }
          }
        }
      }
      JOINT left_manubrium
      {
        OFFSET 5.722621 16.35077 3.967754
        CHANNELS 3 Zrotation Xrotation Yrotation
        JOINT left_clavicle
        {
          OFFSET 13.16364 1.694482 -4.693211
          CHANNELS 3 Zrotation Xrotation Yrotation
          JOINT left_humerus
          {
            OFFSET 29.39168 -1.063119 -2.237045
            CHANNELS 3 Zrotation Xrotation Yrotation
            JOINT left_radius
            {
              OFFSET 24.59957 -0.9528479 0.9047498
              CHANNELS 3 Zrotation Xrotation Yrotation
              End Site
              {
                OFFSET 15 -0 -0
              }
            }
          }
        }
      }
    }
  }
}
MOTION
Frames: 13
Frame Time: 0.0416666666667
-489.5724 103.2586 3151.653 -1.993023 -9.382401 -18.32143 4.764385 3.090188 3.230268 -0 12.03516 -0 -2.785328 -8.802189 -4.722274 -1.463253 -9.530209 -4.592539 -0 51.15876 -0 -5.89835 -7.505461 17.42621 1.603798 -2.92068 7.375753 0.1126608 16.93347 -7.620307 0.337723 19.59279 3.609616 2.778969 -18.22523 3.105863 -2.754924 -28.47014 13.26929 93.51688 18.71539 -17.81288 -0 0 22.57736 -23.5155 13.54591 10.23578 3.074347 -26.83697 -10.67624 -89.94412 7.929397 29.88341 0 0 -18.56147 9.906176 14.2575 -0.2102376
-491.3048 103.2273 3157.376 -1.973942 -8.738521 -19.15165 4.694756 6.501358 2.91372 -0 10.19152 -0 -2.727186 -10.33649 -3.658812 -0.3865175 -15.01679 -3.679086 -0 44.95811 -0 -5.26288 -7.550414 17.91576 1.602775 -2.998228 7.690975 0.09619119 16.90104 -7.391087 0.4278418 19.48775 3.149338 2.311608 -18.04981 3.064227 -2.847664 -29.37406 13.11526 92.80958 18.64076 -16.21971 -0 0 24.26166 -23.39548 13.96539 11.02501 2.570279 -25.96045 -10.29756 -90.92785 8.201738 32.17963 0 0 -16.08455 8.892253 14.20821 1.330923
-492.9342 102.7876 3163.186 -1.949271 -7.921579 -19.91426 4.473942 9.705837 2.742804 -0 9.39021 -0 -2.635875 -11.90877 -2.748892 0.5961034 -19.29151 -3.107827 -0 37.7512 -0 -4.962178 -7.524887 18.26202 1.58469 -3.089886 8.007498 0.08342072 16.85785 -7.178751 0.5098006 19.38806 2.704419 1.868987 -17.8579 3.016777 -2.919507 -30.22158 12.96313 92.1068 18.5823 -14.71152 -0 0 25.87838 -23.28399 14.36027 11.74412 2.088527 -25.14187 -9.925664 -91.85334 8.392997 34.32135 0 0 -13.75094 7.980776 14.13166 2.715222
-494.5039 102.048 3169.155 -1.908087 -7.138515 -20.59102 4.068827 12.71386 2.753428 -0 9.900138 -0 -2.434172 -13.16703 -2.028969 1.264782 -22.24274 -2.977978 -0 30.72877 -0 -5.05391 -7.462717 18.56245 1.549785 -3.184246 8.301836 0.07229452 16.80346 -6.991004 0.5787144 19.30398 2.305469 1.484096 -17.66012 2.965665 -2.962473 -30.95674 12.82208 91.44249 18.55196 -13.36707 -0 0 27.32838 -23.18293 14.69738 12.34922 1.66373 -24.42359 -9.582976 -92.66358 8.506656 36.17825 0 0 -11.67478 7.2273 14.04464 3.85501
-496.0635 101.1512 3175.357 -1.837287 -6.586964 -21.17443 3.475764 15.40562 2.847083 -0 11.7543 -0 -2.10857 -13.5382 -1.469023 1.435163 -23.83034 -3.292522 -0 24.81798 -0 -5.429636 -7.483951 18.8967 1.501497 -3.268491 8.552321 0.06048085 16.74002 -6.832723 0.6312698 19.24336 1.978601 1.183474 -17.46986 2.913691 -2.972546 -31.5374 12.70093 90.84875 18.55749 -12.24744 -0 0 28.53103 -23.093 14.95074 12.81089 1.324488 -23.83622 -9.289757 -93.31742 8.556788 37.65601 0 0 -9.941741 6.666162 13.96491 4.695166
-497.6592 100.2645 3181.863 -1.730163 -6.418332 -21.65575 2.734868 17.55801 2.869973 -0 14.94412 -0 -1.718546 -12.44759 -1.029721 1.005102 -24.05584 -3.971811 -0 20.67608 -0 -5.847914 -7.697928 19.29781 1.446001 -3.330483 8.740185 0.04637283 16.67277 -6.708166 0.6652678 19.2105 1.744909 0.9865157 -17.30241 2.8641 -2.949609 -31.93433 12.60813 90.35813 18.60163 -11.40257 -0 0 29.42224 -23.01519 15.10343 13.11167 1.092718 -23.40273 -9.064297 -93.78684 8.560542 38.69042 0 0 -8.620609 6.314973 13.90691 5.207441
-499.3194 99.5753 3188.708 -1.590393 -6.690887 -22.00929 1.922899 18.86286 2.720343 -0 19.54024 -0 -1.351263 -9.636785 -0.720048 -0.007715161 -22.97921 -4.879726 -0 18.62014 -0 -6.004708 -8.132708 19.73231 1.391307 -3.360281 8.849938 0.02967701 16.60949 -6.62253 0.6791778 19.20622 1.620605 0.9058686 -17.17378 2.820419 -2.896875 -32.12863 12.55149 90.00472 18.68236 -10.87694 -0 0 29.95103 -22.95175 15.14751 13.24257 0.9839626 -23.14234 -8.92306 -94.05244 8.532798 39.23833 0 0 -7.773261 6.180347 13.87967 5.382389
-501.0363 99.27135 3195.846 -1.433173 -7.335302 -22.18291 1.127119 18.95233 2.425722 -0 25.64214 -0 -1.062463 -5.428435 -0.621576 -1.449637 -20.73471 -5.863274 -0 18.50878 -0 -5.640574 -8.71501 20.09462 1.345945 -3.351319 8.869742 0.01157036 16.55926 -6.582444 0.6719433 19.22862 1.61708 0.9480059 -17.09911 2.786417 -2.82021 -32.10901 12.53753 89.82323 18.79345 -10.712 -0 0 30.07675 -22.90666 15.08269 13.19999 1.007753 -23.0727 -8.880135 -94.09967 8.483344 39.26995 0 0 -7.459663 6.262812 13.88641 5.221981
-502.7579 99.49232 3203.113 -1.284543 -8.154558 -22.1067 0.4243602 17.46537 2.132017 -0 33.08939 -0 -0.8550361 -0.7653178 -0.8629411 -3.044016 -17.52839 -6.793511 -0 19.67845 -0 -4.681715 -9.326318 20.21987 1.317381 -3.301644 8.79241 -0.005418344 16.53068 -6.595529 0.6430812 19.27417 1.740232 1.113197 -17.09072 2.766052 -2.727488 -31.87055 12.57054 89.84573 18.92476 -10.94449 -0 0 29.76943 -22.88558 14.91482 12.98377 1.167244 -23.20995 -8.945791 -93.91687 8.415632 38.7651 0 0 -7.737177 6.559769 13.92495 4.734754
-504.4035 100.2552 3210.253 -1.178672 -8.885083 -21.72393 -0.1171268 14.18392 1.976175 -0 41.01547 -0 -0.7329042 3.119327 -1.534177 -4.44767 -13.60979 -7.584277 -0 21.07122 -0 -3.355296 -9.928842 19.93487 1.310345 -3.21548 8.617719 -0.01767129 16.52995 -6.669069 0.5930881 19.3385 1.988303 1.394064 -17.15556 2.763135 -2.628077 -31.41647 12.65125 90.09547 19.06209 -11.59902 -0 0 29.01615 -22.89526 14.65536 12.59758 1.457216 -23.56578 -9.123882 -93.49708 8.326313 37.7176 0 0 -8.651607 7.065045 13.98815 3.935889
-505.9088 101.3976 3217.019 -1.148089 -9.326201 -21.03033 -0.4423233 9.213985 1.921232 -0 47.62957 -0 -0.7790121 5.335652 -2.572111 -5.368794 -9.215003 -8.181459 -0 21.63238 -0 -2.153605 -10.66917 19.16833 1.325381 -3.104646 8.355948 -0.02098343 16.55921 -6.807598 0.5240908 19.4165 2.348172 1.77274 -17.29222 2.780449 -2.532269 -30.76414 12.77537 90.57748 19.18708 -12.67374 -0 0 27.83505 -22.94233 14.32265 12.0527 1.860471 -24.14052 -9.408238 -92.84482 8.205629 36.15052 0 0 -10.21698 7.763934 14.06418 2.853852
-507.276 102.6016 3223.295 -1.199477 -9.464512 -20.09535 -0.5569794 3.085327 1.732791 -0 50.7574 -0 -1.104398 5.835228 -3.74737 -5.71093 -4.513999 -8.547489 -0 20.82828 -0 -1.570529 -11.81452 18.0595 1.358223 -2.988025 8.030649 -0.01161272 16.61565 -7.009491 0.4404012 19.50203 2.792263 2.218845 -17.4885 2.818337 -2.450047 -29.95238 12.93291 91.26807 19.27919 -14.12221 -0 0 26.29218 -23.03127 13.94309 11.37385 2.34499 -24.91366 -9.779592 -91.98652 8.039902 34.1377 0 0 -12.38653 8.625312 14.13771 1.540891
-508.5835 103.5136 3229.15 -1.290327 -9.450768 -19.04798 -0.5534068 -3.384429 1.177204 -0 49.10436 -0 -1.661271 5.257933 -4.81781 -5.622072 0.3571242 -8.671879 -0 18.89391 -0 -1.761595 -13.51218 16.91872 1.400706 -2.887142 7.677045 0.01208336 16.69188 -7.263734 0.3483974 19.58809 3.27996 2.692047 -17.72185 2.873364 -2.388724 -29.04378 13.10921 92.10948 19.32124 -15.84223 -0 0 24.50877 -23.16174 13.54939 10.60322 2.866139 -25.8365 -10.20585 -90.97864 7.817451 31.81719 0 0 -15.02842 9.596417 14.19309 0.07899213
